<svg fill="#FFFFFF" xmlns="http://www.w3.org/2000/svg" viewBox="0 0 100 100" x="0px" y="0px"><title>Sacred geometry RTE</title><g data-name="Layer 2"><path d="M48.81494,69.58038l-.11651-.13293q-.49889-.03287-.99073-.09058l-.13867.10962.10962.13867q.498.05832,1.00336.09174Z"></path><path d="M32.77081,40.87958c.07752-.14618.16223-.28778.24335-.4317q.25434.42819.52893.84246l.17328.035.035-.17328q-.2752-.41447-.52954-.84351l-.11285-.02887c.05072-.088.09765-.17852.14978-.26568l-.04315-.17145-.17145.04315q-.25791.4314-.49414.87677l.05182.169Z"></path><path d="M66.11981,38.81964l.03021-.17413q-.29058-.41263-.60144-.80939l-.17553-.0213-.0213.17548q.30689.39165.59387.79913Z"></path><path d="M67.05475,40.30225l-.04779.17016q.24352.43378.46527.881l.16754.05646.05646-.16748q-.22449-.45291-.47132-.89233Z"></path><path d="M67.66315,58.82391h-.00006q.22476-.449.42712-.91076l-.06439-.16468-.16461.06434q-.19968.45584-.42163.89917l.05578.16778Z"></path><path d="M68.8028,56.02838q.15326-.47845.28265-.96728l-.08893-.15284-.15277.08887q-.12762.48249-.279.955l.08087.15722Z"></path><path d="M31.69818,42.58856q-.18886.46591-.35443.94336l.07721.15906.159-.07715q.16341-.47132.34991-.9314l-.06885-.16278Z"></path><path d="M34.36511,38.36078q.29747-.399.61457-.78192l-.01661-.176-.176.0166q-.321.38773-.62238.79187l.02552.17493Z"></path><path d="M66.45947,60.44287q-.26706.42-.55456.82507l.02954.17426.17431-.0296v.00006q.29115-.41025.56165-.83569l-.03839-.17255Z"></path><path d="M50.68781,69.47833l-.12055.12921.12921.12061q.50621-.01758,1.0058-.0603l.11389-.1352-.13519-.11389Q51.18777,69.46088,50.68781,69.47833Z"></path><path d="M69.61462,50.20343l.12549-.12451L69.74023,50q0-.50665-.02526-1.0072l-.13111-.11859-.11853.13116q.02481.49412.0249.99463l-.00012.07794Z"></path><path d="M58.37848,32.25854l.05847.16681q.44842.2157.884.45331l.16956-.04986-.04987-.16962q-.441-.2406-.89532-.45911Z"></path><path d="M60.29285,66.70148l-.17182-.04181q-.42489.25872-.86383.49615l-.05047.16938.16943.05053q.44439-.24032.87488-.5025Z"></path><path d="M62.54327,64.91827q-.38067.32035-.77771.62146l-.024.17511.17511.02411q.402-.30477.78759-.62945l.01514-.17609Z"></path><path d="M44.85522,31.19586l.08771-.1535-.1535-.08765q-.48771.13312-.96509.29029l-.07965.15777.15778.07965Q44.37368,31.32743,44.85522,31.19586Z"></path><path d="M32.23535,58.329l.0611-.16589q-.20865-.45155-.39453-.91535l-.16254-.06952-.06952.16254q.18823.46966.3996.92719Z"></path><path d="M55.57446,31.18768l.08338.15589q.47754.14456.94452.31274l.15991-.07526-.07526-.16q-.47286-.17019-.95666-.31677Z"></path><path d="M42.04712,32.20068l.063-.16516-.16516-.063q-.46161.20655-.91046.4358l-.05445.16815.16815.0545Q41.59128,32.40475,42.04712,32.20068Z"></path><path d="M42.965,68.31641l-.0708-.162q-.46326-.18145-.9148-.38568l-.1654.06238.06237.1654q.4573.20673.9267.39069Z"></path><path d="M40.25653,67.0285l-.04517-.1709q-.43011-.25031-.846-.52166l-.173.03637.03638.173q.42114.27465.85687.52832Z"></path><path d="M61.82141,34.50256l.17523-.02343-.02343-.17524q-.39991-.30542-.81556-.59076l-.17376.03229.03228.17383Q61.42651,34.20077,61.82141,34.50256Z"></path><path d="M39.42487,33.62524l.037-.17285-.17285-.03705q-.42388.2743-.83252.5694l-.02813.1745.1745.02814Q39.00629,33.89615,39.42487,33.62524Z"></path><path d="M30.31384,51.472q.03717.50491.09955,1.00269l.13953.10852.10858-.13953q-.06153-.49136-.09833-.99005l-.13391-.11548Z"></path><path d="M30.31958,48.45172q-.03873.49979-.05249,1.00629l.12158.12835.1283-.12158q.01345-.50014.05188-.99371l-.115-.13428Z"></path><path d="M47.784,30.63434l.1101-.13831-.13824-.1101q-.5029.05685-.998.13879l-.103.14368.14373.103Q47.2873,30.69062,47.784,30.63434Z"></path><path d="M53.727,30.86566l.14648-.099-.09893-.14642v-.00006q-.49275-.0954-.9939-.16614l-.14124.10632.10633.14124Q53.24048,30.77137,53.727,30.86566Z"></path><path d="M66.11987,19.20441l.03022-.1742q-.29059-.41253-.60144-.80938l-.17548-.02131-.0213.17548q.30679.39166.59387.79919Z"></path><path d="M61.76508,45.92493,61.741,46.1l.17511.024v.00007q.402-.30487.78766-.62946l.01513-.17609-.17615-.01513Q62.162,45.62381,61.76508,45.92493Z"></path><path d="M53.72729,11.25l.14649-.09894-.09894-.14648q-.49273-.0954-.9939-.1662l-.14123.10632.10632.14124Q53.24079,11.15571,53.72729,11.25Z"></path><path d="M50,10.894q.38424,0,.76489.01471l.1297-.12011-.12011-.1297Q50.38913,10.64411,50,10.644l-.23322.00135-.12359.1264.12646.1236Z"></path><path d="M60.29224,47.08661l-.17176-.04181q-.42489.25873-.86383.49609l-.05053.16938.16943.05053q.44439-.24032.87494-.50244Z"></path><path d="M68.80255,36.41376q.15326-.47846.28272-.96729l-.08887-.15277-.15283.08887q-.12763.48247-.27906.95495l.08088.15717Z"></path><path d="M67.66284,39.20929q.22467-.449.42706-.91077l-.06433-.16467-.16461.06433q-.19968.45575-.42169.89917l.05579.16773Z"></path><path d="M66.45911,40.82819q-.26706.41994-.55463.82507l.0296.17425.17426-.0296V41.798q.29123-.41024.5617-.83563l-.03839-.17255Z"></path><path d="M30.31378,31.85608q.03717.505.09955,1.00268l.13953.10853.10852-.13953q-.06144-.49137-.09827-.99l-.13385-.11548Z"></path><path d="M30.31964,28.83582q-.03882.49979-.05255,1.00628l.12158.12836.1283-.12158q.01355-.50007.05194-.99372l-.115-.13427Z"></path><path d="M50.56659,49.99237l.12927.12061c.17768-.00617.35315-.02094.52966-.03174l.07581.08648q.49887.03288.99072.09058l.13874-.10962L52.32117,50.01c-.17932-.021-.36115-.03339-.54187-.04956l.03619-.043-.13513-.11389q-.4932.04212-.99317.05951Z"></path><path d="M40.08508,47.45807l.1709-.04517-.04516-.1709q-.43012-.2503-.846-.52166l-.173.03643.03638.173Q39.64935,47.2044,40.08508,47.45807Z"></path><path d="M42.11047,12.4198l-.1651-.06305h-.00006q-.46161.20655-.9104.43579l-.0545.16815.16821.05451q.44293-.22623.8988-.4303Z"></path><path d="M32.23505,38.7132l.06109-.1659q-.20856-.45153-.39453-.91534l-.16254-.06952-.06951.16254q.18822.46966.39959.92718Z"></path><path d="M59.49072,13.21332l-.04986-.16962q-.44093-.2406-.89527-.45917l-.16681.05848.05848.16687q.44834.2156.88391.4533Z"></path><path d="M42.80243,48.77173l.162-.0708-.0708-.162q-.46326-.18145-.9148-.38574l-.1654.06244.06237.1654Q42.3331,48.58777,42.80243,48.77173Z"></path><path d="M69.61456,30.58887l.12555-.12451.00012-.07959q0-.50665-.02526-1.00721l-.13111-.11859-.11853.13117q.02481.4941.0249.99463l-.00012.07861Z"></path><path d="M61.99683,14.86371l-.02344-.17517q-.3999-.30552-.81549-.59082l-.17383.03228.03235.17383q.41025.28163.80517.58338Z"></path><path d="M39.46222,13.83661l-.17285-.03705q-.4238.27429-.83246.56934l-.0282.17456.1745.02813q.40338-.29123.822-.56213Z"></path><path d="M34.36542,18.74493q.29745-.39889.61456-.78192l-.0166-.176-.176.01654h-.00006q-.321.38781-.62237.79193l.02551.17493Z"></path><path d="M31.69843,22.97272q-.18888.46591-.3545.94336l.07721.15905.15906-.07714q.16334-.47132.34991-.9314l-.0689-.16278Z"></path><path d="M47.7843,11.01855l.11017-.13824-.13831-.11017q-.50289.057-.998.1388l-.103.14373.14374.103Q47.28759,11.0749,47.7843,11.01855Z"></path><path d="M33.1532,20.58575l.11157.11432q.49695.006.99469.03742l.13263-.11682-.11682-.13269q-.504-.03186-1.00745-.03791l-.08471.08271c.02606-.04438.04943-.09046.07586-.13465l-.04315-.17145-.17145.04316h.00006q-.25789.43139-.4942.87677l.05182.169.169-.05188C32.89282,21.03424,33.02264,20.80975,33.1532,20.58575Z"></path><path d="M52.49164,37.87128l.1084-.13971H52.6q-.06318-.50043-.15174-.99652l-.145-.10114-.10107.145q.08734.48972.14984.984Z"></path><path d="M47.44183,27.08228l.17658.00836.00842-.17658q-.33765-.37143-.69623-.72741l-.17682.00061.00068.17681Q47.1084,26.71537,47.44183,27.08228Z"></path><path d="M37.22852,59.47748l.09533-.14887-.1488-.09533q-.48606.10638-.97736.188l-.10284.14379.1438.10285h.00006Q36.73611,59.58529,37.22852,59.47748Z"></path><path d="M51.4563,33.89062q.16077.471.29736.94971l.15454.08588.08588-.15454q-.13833-.4845-.30115-.96179l-.15869-.078Z"></path><path d="M42.75781,23.31329l.05719.03321.1709-.04523-.04517-.1709-.05792-.03357q-.43917-.25361-.88568-.48218l-.16827.05426.05426.16828Q42.32394,23.06293,42.75781,23.31329Z"></path><path d="M33.22583,59.68469l-.12347.12647.11444.11181-.166-.04242-.04376.17127q.25753.43442.53638.85431l.17328.035.035-.17328q-.272-.4096-.52338-.83362l.00049.00049q.50473-.006,1.00751-.03772l.11688-.13263-.13257-.11688Q33.72433,59.67868,33.22583,59.68469Z"></path><path d="M30.24866,59.491l-.14142.10608.10608.14142q.50014.07149,1.0014.11694l.1358-.11316-.11315-.1358Q30.74261,59.56156,30.24866,59.491Z"></path><path d="M45.346,55.61237l.01953-.17566-.17566-.0196q-.38928.31119-.79248.60083l-.02856.17444.17443.02857Q44.95151,55.9277,45.346,55.61237Z"></path><path d="M41.96271,57.78979q.44878-.22778.88659-.47875l.04627-.1706-.17066-.04626q-.432.24774-.87536.47265l-.05493.168Z"></path><path d="M50.45032,49.44519c.08075-.15186.153-.306.22931-.45911l.11163-.02221q.27777-.41583.57361-.81311l-.0257-.17493-.17486.02563c-.10437.1402-.20258.28681-.30365.43049l-.02-.05512-.1662.06018q-.21.44871-.44495.89087l.05176.16907Z"></path><path d="M45.27228,25.03705l.17572-.0188-.01874-.17578q-.39046-.315-.80023-.61261l-.17462.02771.02777.17462Q44.88666,24.7258,45.27228,25.03705Z"></path><path d="M16.01807,30.65015l.1156-.20288q.19143-.33169.3938-.6529l-.03919-.17242-.17236.03918q-.2049.32529-.39881.66114l-.117.20538.04779.17023Z"></path><path d="M21.83575,56.46478q.41355.28336.8454.54846l.17194-.04119-.0412-.17188q-.42645-.26166-.83478-.54163l-.17377.03248Z"></path><path d="M19.48169,54.57159v-.00006q.36594.34388.75207.671l.17615-.01458-.01459-.17615q-.38112-.3229-.74243-.66248l-.17669.00556Z"></path><path d="M16.29138,50.69147l.1723.03955.03955-.1723c-.13922-.22217-.26995-.44873-.39984-.67585l.15442-.03943q.2537-.42746.52985-.84283l-.03485-.17334-.17334.03491q-.2796.42051-.53662.8537l.029.11371c-.02429-.04279-.05127-.08411-.0752-.127l-.17-.04828-.04828.17Q16.02338,50.26371,16.29138,50.69147Z"></path><path d="M21.83514,24.0672l.17371.03278q.41153-.281.83557-.53968l.04157-.17181-.17176-.04157q-.42938.26195-.84631.54657Z"></path><path d="M19.51276,25.78278l-.00568.17669.1767.00568q.36373-.341.74255-.66119l.01471-.17615-.17615-.01477Q19.88138,25.43731,19.51276,25.78278Z"></path><path d="M17.44714,52.34125q.309.39615.63965.778l.17633.01264.01264-.17633q-.32638-.37683-.63147-.76813l-.17548-.02167Z"></path><path d="M18.11548,27.23486q-.329.379-.64087.77784l.02148.17547.17548-.02148q.3078-.39367.63275-.768l-.01251-.17633Z"></path><path d="M13.37177,42.18634l.13708.11157.11163-.13708q-.05063-.49476-.07611-.9925l-.13122-.11846-.11847.13122Q13.32041,41.68509,13.37177,42.18634Z"></path><path d="M14.75787,33.35461q.17451-.464.37415-.92266l-.0647-.16455-.16449.06469q-.20233.46444-.379.93457l.07306.16095Z"></path><path d="M13.90753,45.15973l.15241.08954.08954-.15247q-.12525-.48156-.226-.96924l-.1477-.0971-.09711.14764Q13.78064,44.67184,13.90753,45.15973Z"></path><path d="M13.926,36.2196q.10125-.48586.228-.969l-.08911-.15265-.15265.08917q-.12854.48916-.231.98151l.09687.14783Z"></path><path d="M31.25378,20.52881q-.50244.04541-1.00134.11621l-.1062.1413.1413.1062q.49245-.06986.98877-.11475l.11322-.13574Z"></path><path d="M13.54443,39.17828q.02546-.49621.07648-.99237l-.11157-.13714-.13715.11151q-.05163.50244-.07739,1.00525l.11841.13122Z"></path><path d="M24.44983,57.9798v-.00006q.4563.22036.919.41522l.16369-.06665-.06665-.16376q-.45666-.19245-.90741-.40991l-.16693.05823Z"></path><path d="M14.51294,47.08167q.17559.472.37512.93536l.16425.06531.06537-.16425q-.197-.4573-.37037-.92358l-.16076-.07355-.07355.16071Z"></path><path d="M24.48535,22.38678l-.0589.16663.16669.05889q.44925-.21468.90832-.40594l.06733-.16351-.16346-.06726Q24.94053,22.16922,24.48535,22.38678Z"></path><path d="M36.84955,79.04993l-.14636-.09906q-.48981.09438-.98145.1632l-.10651.14112.14118.10644q.49787-.06966.99408-.16534Z"></path><path d="M52.38947,56.72205l-.10474.14245q.07516.49293.12463.98712l.13684.11188.11188-.13684q-.05017-.50034-.12622-.99988Z"></path><path d="M32.61786,79.42236l.12317.12677q.14484.0022.28991.00214.35871,0,.718-.01306l.12036-.12946-.12951-.12036q-.35459.01291-.70881.01288l-.08215-.00061.04437-.1579q-.24353-.43377-.46533-.881l-.16754-.05646-.05646.16748q.22458.45291.47132.89234l.1253.03521c-.05194-.0003-.10382-.00036-.15576-.00116Z"></path><path d="M13.32507,61.3111l.134.11517.11523-.134q-.03762-.497-.04962-.99384l-.128-.12189-.12195.128Q13.28705,60.8075,13.32507,61.3111Z"></path><path d="M39.72437,41.24292l-.16.07513.07514.16q.46792.16891.92736.36157l.16358-.06689-.0669-.16364Q40.19842,41.414,39.72437,41.24292Z"></path><path d="M26.87958,78.30811l-.158.07934.07934.158q.47865.15847.9646.29248l.15375-.08728-.08728-.15375Q27.3523,78.46458,26.87958,78.30811Z"></path><path d="M23.95886,77.21173l.05445.16815q.44934.22962.90918.43567l.16516-.06293-.06293-.16516q-.45382-.20343-.89764-.43017Z"></path><path d="M43.3526,42.98761q-.4304-.264-.87262-.50513l-.16962.04987.04993.16962q.43653.23794.86157.49871l.17188-.0412Z"></path><path d="M14.2876,54.39935l-.08539-.15472-.15479.08539q-.1398.48422-.25488.97516l.09314.1502.15021-.09314Q14.14959,54.87765,14.2876,54.39935Z"></path><path d="M13.68091,63.165l-.10083.14514q.08908.49466.20416.98688l.15015.09326.09326-.15021q-.11362-.48577-.20154-.97424Z"></path><path d="M29.63037,79.13007l.10242.1441q.49657.084.99762.1427l.13867-.10962-.10962-.13867q-.49448-.058-.985-.14093Z"></path><path d="M14.70392,52.42474l.06933.1626.1626-.06927q.18576-.46143.395-.91364l-.06091-.166-.166.06091Q14.89206,51.95725,14.70392,52.42474Z"></path><path d="M13.43274,57.28772q-.06464.49933-.10394,1.00232l.11493.13434.13433-.11487q.03873-.49648.1026-.98969l-.108-.14Z"></path><polygon points="52.728 60.847 52.728 60.847 52.728 60.847 52.728 60.847"></polygon><path d="M48.94275,71.04553q-.28611.40623-.59412.799l.02118.17548.17554-.02118q.31193-.39771.60181-.80933l-.03022-.17413Z"></path><path d="M50.63629,68.42523l-.16748.05646q-.22092.4455-.46478.88031l.04785.17017.17017-.04786h.00006q.24691-.44017.4707-.8916Z"></path><path d="M31.81329,40.35l.11719-.13233-.13232-.11719q-.50217.03059-1.00409.087l-.11023.13824.13818.11023Q31.31741,40.38015,31.81329,40.35Z"></path><path d="M22.24567,43.41046l.17285.03711q.41556-.26862.84906-.519l.04364-.02509.04614-.17065-.17065-.04614-.04413.02539q-.4389.25341-.8598.52557Z"></path><path d="M21.40741,75.62805l.02808.17456q.40942.296.83209.56964l.17285-.037-.037-.17286q-.4171-.27007-.82153-.56237Z"></path><path d="M34.79565,40.39752l.136-.113-.11291-.136q-.50126-.04651-1.00538-.06744l-.13012.11969.11975.13006Q34.30056,40.35157,34.79565,40.39752Z"></path><path d="M51.58612,65.71552q-.15069.47415-.32538.94061l.07318.16089.16095-.07318q.17688-.47223.32953-.95264l-.0813-.157Z"></path><path d="M39.73914,78.23743l-.15992-.07538q-.46993.16874-.94452.31207l-.08349.15582.15582.0835q.48055-.1452.95673-.3161Z"></path><path d="M19.12866,73.67126l.00092.17676q.35961.356.73492.691l.17652-.01-.01-.17651q-.37033-.33069-.72553-.68219Z"></path><path d="M49.0083,48.45123l-.03088.17408q.28353.40575.54913.82989l.17224.03961.03961-.17224h.00006c-.08728-.1394-.1806-.27283-.27081-.4093l.03589-.106q-.22137-.44825-.41779-.90271l-.1643-.06518-.06513.16436h-.00006c.06647.15375.14136.30548.212.45819Z"></path><path d="M19.86768,45.24249l.17645.01038q.37043-.32931.76037-.64191l.01935-.17572-.17566-.01941q-.395.3165-.77014.65021Z"></path><path d="M44.98315,75.35022l-.17511-.02411q-.39468.29919-.808.58075l-.033.17371.17371.033q.41857-.285.81836-.58814Z"></path><path d="M42.4704,76.99274l-.1695-.05024q-.43955.23859-.88586.45228l-.05872.16674.16669.05872q.45191-.21652.89716-.458Z"></path><path d="M24.91956,41.93781l.1651.06311q.45629-.20381.91827-.38239l.07147-.16168-.16168-.07147q-.46784.1809-.93.38726Z"></path><path d="M15.59753,68.83545l-.05224.16888q.17871.33875.37182.6734l.12061.206.17126.0437.04377-.17127-.11908-.20343q-.1908-.3304-.36725-.665Z"></path><path d="M14.34344,66.233q.16389.47435.35328.94361l.16266.06909.06915-.16272q-.18705-.46317-.34876-.93158l-.159-.07733Z"></path><path d="M17.178,71.38782l-.02619.1748q.30094.407.61957.79486l.17591.01728.01727-.17591q-.31449-.38287-.61176-.78485Z"></path><path d="M17.97333,47.402q.316-.38314.65313-.75171l-.00781-.17658-.17663.00782q-.3414.37317-.66156.76141l.0169.176Z"></path><path d="M39.707,52.91388l.17181.04175q.42491-.25873.86383-.4961l.05048-.16943-.16943-.05048q-.44441.24033-.87488.50245Z"></path><path d="M49.43256,50.00763l-.12928-.12061c-.17767.00617-.35315.021-.5296.0318l-.07587-.08667q-.499-.03287-.99072-.09063l-.13873.10962.10962.13873c.17938.021.3612.03338.542.04956l-.03638.04315.1352.11389q.49318-.0421.99316-.05957Z"></path><path d="M35.77655,83.12335l-.00336.17676q.34937.36311.71686.70819l.1767-.00555-.00556-.1767q-.36282-.34057-.70788-.69928Z"></path><path d="M38.00348,85.13605l.0235.17517q.39981.3055.81549.59082l.17377-.03229-.03229-.17383q-.41025-.28161-.80524-.58337Z"></path><path d="M40.50964,86.78638l.04987.16961q.44091.24051.89532.45911l.16681-.05847-.05847-.16681q-.44843-.2157-.88391-.45331Z"></path><path d="M57.19672,51.22791l-.162.0708.0708.162q.46335.18147.91486.38568l.1654-.06237-.06238-.16541Q57.66611,51.41186,57.19672,51.22791Z"></path><path d="M66.45642,58.70892l-.17328-.035-.035.17328q.2752.41436.5296.84344l.17127.04383.04382-.17127H66.9928Q66.73527,59.12882,66.45642,58.70892Z"></path><path d="M67.76459,61.286l-.0611.16589q.20856.45155.39453.91535l.16254.06952.06952-.16254q-.18824-.46966-.3996-.92712Z"></path><path d="M34.62708,81.80029l.0213-.17547q-.30689-.39167-.59388-.79914l-.17419-.03021-.03021.1742q.29058.41253.6015.80932Z"></path><path d="M65.25769,57.08911q-.32016-.38955-.65961-.76221l-.17663-.0083-.00824.17664q.33508.36786.65137.75262l.1759.01722Z"></path><path d="M58.96552,87.20679l.05444-.16822-.16815-.05444q-.443.22623-.89887.43024l-.063.16516.1651.063Q58.51666,87.436,58.96552,87.20679Z"></path><path d="M31.1734,75.56879q.15263.48294.329.955l.16089.07331.0733-.16083q-.174-.46591-.32483-.94281l-.15686-.08154Z"></path><path d="M69.17657,73.11664q-.08907.49144-.20257.97406l.09308.15027.15027-.09308v-.00006q.1148-.48872.20526-.98658L69.3219,73.016Z"></path><path d="M66.78442,79.77246l.17145-.04315q.25791-.4314.4942-.87677l-.05188-.169-.169.05188c-.12189.22974-.25183.45447-.38251.67865l-.11145-.11419q-.49695-.006-.99469-.03742l-.13263.11688.11682.13263h.00006q.50391.03186,1.00739.03791l.08429-.08228c-.02582.044-.049.08966-.0752.13342Z"></path><path d="M69.43115,71.14392l.115.13428.13428-.11493q.03882-.49979.05255-1.00629l-.12158-.12835-.12836.12158Q69.46957,70.65035,69.43115,71.14392Z"></path><path d="M65.02039,82.03613l.01654.176.176-.0166q.321-.38773.62238-.79187l-.02552-.17493-.17492.02545Q65.33743,81.6532,65.02039,82.03613Z"></path><path d="M68.42,76.00116q-.16332.47123-.34991.93134l.06891.16284.16278-.06891q.18886-.46592.35443-.94342l-.07715-.159Z"></path><path d="M69.447,67.0318l-.10852.13953q.06144.49136.09833.99l.13385.11548.11548-.13385q-.03726-.505-.09955-1.00269Z"></path><path d="M62.949,84.18243l-.01031.17646.17645.01031q.37665-.33509.73584-.68878l.00134-.17676-.17681-.00134Q63.321,83.85151,62.949,84.18243Z"></path><path d="M61.54346,85.63031l.0282-.1745-.1745-.0282q-.40339.29133-.822.5622l-.03705.17285.17285.037Q61.13489,85.92542,61.54346,85.63031Z"></path><path d="M30.25989,69.5365l-.00012.07873q0,.50666.02526,1.00715l.13111.11859.11859-.13111q-.0249-.49419-.025-.99463l.00012-.07775-.12445-.12549L30.26,69.5365Z"></path><path d="M30.73517,72.58887l-.14252-.10468-.10461.14252q.07653.50014.17791.99188l.14765.09717.09723-.14764Q30.81086,73.0828,30.73517,72.58887Z"></path><path d="M30.61774,67.55127q.05227-.497.12933-.98645l-.10406-.14288-.14295.10406q-.07782.49557-.13092.99909l.11121.13739Z"></path><path d="M32.33679,60.7915q-.22476.449-.42706.91077l.06433.16467.16467-.06439q.19959-.45574.42163-.89917l-.05584-.16772Z"></path><path d="M59.91418,52.54144l-.17089.04517.04516.1709q.43013.2503.846.5216l.173-.03637-.03637-.173Q60.34992,52.795,59.91418,52.54144Z"></path><path d="M46.27313,88.74957l-.14648.09894.09894.14649q.49274.09538.99389.16613l.14124-.10632-.10633-.14124Q46.75965,88.84382,46.27313,88.74957Z"></path><path d="M35.82184,55.87994q-.35057.36173-.68256.74115l.01172.1764.17639-.01178q.32777-.37446.67395-.73182l-.00274-.17675Z"></path><path d="M49.23553,89.09076l-.1297.12006.12012.12976q.38517.01482.77405.01489l.23364-.00134.12354-.12647-.12641-.12353L50,89.10547Q49.616,89.10547,49.23553,89.09076Z"></path><path d="M53.24231,89.09045l.103-.14367-.14374-.103q-.48872.08074-.98541.137l-.11017.13831.1383.11011Q52.74717,89.1724,53.24231,89.09045Z"></path><path d="M33.54047,59.17255q.267-.42.55456-.82514l-.0296-.17425-.17432.0296q-.29113.41016-.56164.83563l.03839.17255Z"></path><path d="M79.59033,44.772l.01459.17621q.38113.32281.74249.66242l.1767-.00556-.00556-.1767q-.36593-.34377-.75207-.67095Z"></path><path d="M78.16486,75.93274,77.99115,75.9q-.41152.281-.83557.53968l-.04157.17181.17176.04157q.42937-.26194.84631-.54657Z"></path><path d="M86.09271,54.84021l-.15246-.08954-.08948.15247q.12515.48156.22595.96924l.14765.09716.09716-.1477Q86.21955,55.3281,86.09271,54.84021Z"></path><path d="M54.55182,74.98169l.0188.17578q.39047.31512.80023.61261l.17456-.02771-.02771-.17462q-.40456-.29361-.7901-.60486Z"></path><path d="M86.074,63.78033q-.10125.48588-.228.969l.08911.15265.15265-.08911v-.00006q.12853-.48918.231-.98145l-.09687-.14789Z"></path><path d="M77.14709,43.028l.0412.17187q.42647.26166.83484.54157l.17377-.03241-.03247-.17377v-.00006q-.41355-.28336-.8454-.5484Z"></path><path d="M60.78961,78.55389l.158-.07928-.07928-.158q-.47058-.15619-.93659-.33765l-.1618.071.071.16186Q60.31272,78.39575,60.78961,78.55389Z"></path><path d="M63.76379,79.035q-.48962-.082-.97717-.18969l-.14905.09509.0951.14905q.49365.109.9898.19214l.14392-.10267Z"></path><path d="M58.17114,77.33105l-.05426-.16821q-.44082-.22576-.87469-.47619l-.05731-.03321-.1709.04517.04516.1709.05805.03363q.43917.25359.88574.48217Z"></path><path d="M80.48724,74.21716l.00568-.17669-.1767-.00568q-.36374.341-.74255.66113l-.01471.17621.17615.01471v.00006Q80.11862,74.56263,80.48724,74.21716Z"></path><path d="M85.11218,51.98291l-.16424-.06531-.06531.16425q.19693.45721.3703.92358l.16071.07361.0736-.16077Q85.31174,52.44624,85.11218,51.98291Z"></path><path d="M49.54968,50.55469c-.08069.15191-.153.30609-.22931.45916l-.11163.02222q-.27777.41583-.57355.81311l.02564.17493.17492-.0257c.10431-.14013.20252-.28674.30359-.43036l.02.05506.1662-.06018q.21-.44871.44495-.89087l-.0517-.16907Z"></path><path d="M83.98193,69.34979l-.11554.20294q-.19152.3316-.39386.65284l.03919.17242.17236-.03918q.2049-.32529.39881-.66108l.117-.20544-.04773-.17023Z"></path><path d="M85.24213,66.64532q-.17451.464-.37415.92267l.0647.16449.16449-.06463q.20234-.46444.379-.93457l-.073-.16095Z"></path><path d="M58.15051,42.43317l.05493-.168-.168-.05493v.00006q-.44879.22769-.88659.47869l-.04627.1706.1706.04626Q57.70727,42.65808,58.15051,42.43317Z"></path><path d="M86.45557,60.82166q-.02545.49621-.07642.99243l.11151.13714.13715-.11157q.05172-.50244.07745-1.00519l-.11841-.13122Z"></path><path d="M55.60266,43.98206l.02857-.17444-.17444-.02863q-.40824.29334-.80274.60858l-.01959.17566.17572.01959Q55.19946,44.27164,55.60266,43.98206Z"></path><path d="M86.62836,57.81366l-.13709-.11163-.11163.13708q.05063.49476.07611.99249l.13123.11847.11846-.13122Q86.67963,58.31494,86.62836,57.81366Z"></path><path d="M49.115,67.89569l-.06146.16577q.2101.4575.44372.90473l.16864.05291.05292-.16864q-.23063-.44146-.43805-.89331Z"></path><path d="M65.76379,40.10321l-.11688.13263.13263.11688q.49622-.0313.99475-.03723l.12348-.12646-.12647-.12354Q66.26657,40.07153,65.76379,40.10321Z"></path><path d="M74.46759,41.67181l.06665.16376q.45666.19245.90747.40991l.16687-.05822-.05823-.16694q-.45639-.22028-.919-.41516Z"></path><path d="M50.55548,70.52863l-.0354.17315q.27713.4196.57654.82611l.1748.02649.02649-.17474q-.29562-.40128-.56921-.81561Z"></path><path d="M81.69568,72.60126l.01251.17633.17633-.01251q.329-.379.64087-.77784l-.02148-.17547-.17548.02148Q82.02063,72.22692,81.69568,72.60126Z"></path><path d="M74.49854,77.79358l-.06733.16351.16346.06726q.4648-.19373.92-.41119l.05884-.16663-.16663-.0589Q74.95758,77.60233,74.49854,77.79358Z"></path><path d="M71.57452,78.87952l.15137.09131q.48925-.121.97192-.26679l.08356-.15582-.15582-.0835q-.47645.14383-.95972.26343Z"></path><path d="M81.73718,46.868l-.01263.17633q.3263.37674.63147.76807l.17541.02167.02173-.17542q-.30908-.39624-.63965-.778Z"></path><path d="M62.77161,40.52264l-.09534.14881.1488.0954q.48606-.10639.97736-.188l.10284-.1438-.1438-.10285Q63.26407,40.41483,62.77161,40.52264Z"></path><path d="M68.6496,40.25787l.11322.13581q.49465.045.98864.11548l.14142-.10608-.10608-.14142q-.50014-.0715-1.0014-.11695Z"></path><path d="M69.74762,79.35492l.1062-.1413-.14136-.1062q-.49245.06985-.98877.11475l-.11322.13574.13575.11322Q69.24866,79.42582,69.74762,79.35492Z"></path><path d="M80.87134,26.3288l-.00086-.17676q-.35961-.35605-.73492-.691l-.17651.01.01.17645q.37032.33069.72552.68219Z"></path><path d="M85.71246,45.60065l.08545.15478.15473-.08545q.1398-.48422.25494-.97509l-.0932-.15027-.15021.0932Q85.85056,45.12232,85.71246,45.60065Z"></path><path d="M70.22565,20.97229l.144-.10242-.10242-.144q-.49657-.084-.99756-.1427l-.13873.10956.10962.13873Q69.73507,20.88938,70.22565,20.97229Z"></path><path d="M83.2124,50.99939l.03485.17334.17328-.03491q.27969-.42051.53668-.85364l-.02923-.11462c.02441.043.05151.08459.07562.1278l.17.04828.04827-.17q-.24508-.43946-.51306-.86713l-.1723-.03955-.03949.1723c.13922.22211.27.44873.39984.67585l-.15466.03949Q83.48856,50.584,83.2124,50.99939Z"></path><path d="M81.38135,53.52625l.17663-.00782q.3414-.37317.66156-.76147l-.0169-.176-.176.01691q-.316.38323-.65313.75171Z"></path><path d="M68.20178,59.89972q.50208-.03059,1.00409-.087l.11023-.13818-.13824-.11023q-.49539.05575-.99128.08588l-.11718.13238Z"></path><path d="M66.31665,59.79938l-.11969-.13013q-.4976-.02059-.99268-.06659l-.136.11292.11291.136q.50134.04652,1.00543.06751Z"></path><path d="M56.64734,57.01245q.43039.264.87262.50513l.16962-.04993-.04993-.16955q-.43653-.238-.86157-.49878l-.17194.0412Z"></path><path d="M84.40247,31.16461l.05224-.16888q-.17871-.33883-.37182-.67346l-.12055-.20594-.17126-.04376-.04377.17133.119.20337q.1908.3304.36725.665Z"></path><path d="M85.65656,33.767q-.1638-.47433-.35322-.9436l-.16272-.0691-.06909.16272q.187.46317.34876.93158l.15893.07733Z"></path><path d="M50.9917,51.54871l.03088-.17408q-.28353-.40575-.54913-.82989l-.1723-.03961-.03961.1723c.08728.1394.1806.27277.27081.40924l-.03595.10608q.22146.44816.41778.90265l.16437.06518.06513-.16436c-.06647-.15375-.14136-.30549-.212-.4582Z"></path><path d="M78.59265,24.37195l-.02807-.17456q-.40943-.296-.8321-.56964l-.17285.037.037.17286q.4171.27017.82153.56243Z"></path><path d="M76.0412,22.78833l-.05444-.16821q-.44935-.22962-.90918-.43567l-.16517.06293.06293.16516q.45382.20343.89765.43017Z"></path><path d="M66.26031,20.71155q.35459-.01291.70875-.01288l.08227.00061-.04431.1579q.24343.43377.46527.881l.16754.05646.05646-.16754q-.22458-.45282-.47131-.89234l-.12507-.03509c.05182.00036.10364.00036.15546.00109l.12683-.1231-.12311-.12683q-.145-.00211-.29-.00214-.35871,0-.71784.01306l-.12042.12946Z"></path><path d="M76.68866,57.09662l-.04614.17059.17059.04621.04431-.02552q.4389-.25332.8598-.52557l.03711-.17279-.17285-.03717q-.41556.26871-.84906.519Z"></path><path d="M79.17609,55.5647l.17572.01941q.39495-.3165.77014-.65015l.01037-.17651-.17651-.01032q-.37033.32931-.76031.64185Z"></path><path d="M63.15051,20.95l.14643.09906q.48971-.09438.98144-.16321l.10645-.14111-.14112-.10644q-.49786.06966-.99414.16528Z"></path><path d="M82.82208,28.61224l.02619-.1748q-.30094-.40713-.61957-.79492l-.176-.01728-.01721.176q.3144.38278.6117.78479Z"></path><path d="M86.06561,35.6098l-.09326.15021q.11362.48577.2016.97424l.1452.10083.10083-.1452q-.08907-.49457-.20416-.98682Z"></path><path d="M58.58508,22.6051l.05872-.16675-.16675-.05871q-.4519.21653-.89715.45807l-.05024.16949.1695.05023Q58.13871,22.81886,58.58508,22.6051Z"></path><path d="M56.00012,24.09308l.033-.17371-.17364-.033q-.41868.285-.81836.5882l-.02411.17511.17511.02411Q55.58676,24.37464,56.00012,24.09308Z"></path><path d="M84.66919,48.39557l.06091.166.166-.06091q.21193-.45786.40008-.92529l-.06927-.16266-.16266.06927Q84.87845,47.94336,84.66919,48.39557Z"></path><path d="M48.41394,34.28442q.1506-.47415.32538-.94055l-.07324-.16095-.16089.07324q-.17688.47214-.32953.95258l.08124.157Z"></path><path d="M86.72528,39.69556q-.01218-.50309-.05029-1.0066l-.134-.11523-.11523.13409q.03764.49695.04962.99378l.128.12195Z"></path><path d="M47.66357,36.15765q-.10308.4932-.18121.9914l.10419.14288.14282-.10419q.07708-.49182.179-.97888l-.09681-.148Z"></path><path d="M47.61047,43.27789l.10474-.14245q-.07507-.49293-.12457-.98712l-.13684-.11188-.11194.13684q.05018.50034.12622.99988Z"></path><path d="M52.95886,26.6546q.345-.35706.71027-.6983l.006-.1767-.1767-.006q-.37.34553-.71942.70734l.00312.17675Z"></path><path d="M86.31946,42.68024l.10791.14.14-.108q.06464-.49933.10388-1.00232l-.11486-.13434-.13434.11493Q86.38333,42.18694,86.31946,42.68024Z"></path><path d="M25.92285,39.61523a6.77444,6.77444,0,0,0,4.73407,6.45636c-.02582.12763-.05615.25361-.07947.38208l.10065.14533.14533-.10071c.02209-.12176.051-.241.07531-.362a6.72238,6.72238,0,0,0,.79364.16626v6.24158a6.76486,6.76486,0,1,0,5.13349,12.0437l.00653.11926q.37509.33609.76709.653l.17584-.01862-.01868-.17578q-.387-.31284-.75744-.64471l-.1026.00561a6.81046,6.81046,0,0,0,1.01764-1.00006l5.83349,3.50781A6.74965,6.74965,0,0,0,49,76.30255V82.544a6.7656,6.7656,0,0,0-5.6488,5.43688l-.11335.05329.07526.16.00525.00171A6.76554,6.76554,0,1,0,51,82.544v-6.2414a6.723,6.723,0,0,0,5.68353-7.72436c.29413-.10584.58576-.2168.87317-.336l.06757-.16339-.16333-.06757c-.273.11316-.55017.21808-.82917.31909a6.74524,6.74524,0,0,0-.37951-1.296l5.83386-3.50775a6.76263,6.76263,0,0,0,11.991-4.29608c-.00006-.21417-.0127-.42529-.03223-.6344l.04224.01868q.46774-.18091.93-.38733l.06317-.1651-.1651-.06317q-.44651.1994-.8985.3742A6.76883,6.76883,0,0,0,69.532,52.84418c.03614-.25031.07215-.50061.09882-.75385l-.11121-.13739-.13739.11121c-.02459.23346-.05841.46411-.09112.695a6.75154,6.75154,0,0,0-.98352-.215V46.30255a6.70758,6.70758,0,0,0,.79742-.16724c.05933.29487.114.59144.15985.891l.14246.10467.10467-.14245H69.512c-.04724-.30878-.10333-.61463-.16473-.91846A6.76465,6.76465,0,0,0,69.532,33.22852c.03608-.24994.07215-.49994.09876-.75275l-.11121-.13739-.13745.1112c-.02454.2331-.05835.46332-.091.69391a6.74521,6.74521,0,0,0-.98352-.21515V26.68689a6.73753,6.73753,0,0,0,.79736-.16724c.05927.295.114.59174.15991.89142l.14246.10468.10467-.14246H69.512c-.04724-.309-.10333-.61493-.16479-.91888a6.76755,6.76755,0,1,0-7.46973-10.482L56.37085,13.0321a6.633,6.633,0,0,0,.26923-1.009l.12249-.05761-.07525-.16h-.00006l-.0058-.00189A6.76533,6.76533,0,1,0,43.231,10.769a6.70244,6.70244,0,0,0,.39819,2.26306l-5.50659,2.94031A6.76553,6.76553,0,1,0,30.657,26.45593c-.02575.12757-.05609.25342-.0794.3819l.10064.14526.14533-.10064c.02209-.12171.051-.24091.07525-.36182a6.736,6.736,0,0,0,.79358.16626v6.24145A6.76733,6.76733,0,0,0,25.92285,39.61523ZM36.82538,44.9726l.00653.11883q.375.336.76709.653l.17578-.01868L37.75616,45.55q-.387-.31284-.75744-.64478l-.102.00562a6.81544,6.81544,0,0,0,1.01752-1l5.83349,3.50775a6.58214,6.58214,0,0,0-.43066,3.61822c-.29437.1059-.58631.217-.874.33631l-.06757.16333.16333.06762c.269-.11151.54224-.21484.81708-.31445.02142.11139.05.22.0766.32929l-5.51819,3.31665c-.10041-.12177-.20722-.23761-.31568-.352.20905-.17273.41932-.344.63556-.508l.024-.17511-.17511-.02405c-.222.16834-.43805.34406-.65259.52149a6.75045,6.75045,0,0,0-3.73822-1.857v-6.2351A6.73323,6.73323,0,0,0,36.82538,44.9726Zm-3.133-12.04419V26.68683a6.767,6.767,0,0,0,5.53968-4.96729c.27984.09455.559.19336.83624.30146l.1618-.07111-.071-.16187c-.28662-.11169-.57508-.21411-.86444-.31164A6.77533,6.77533,0,0,0,39.46143,20a6.70128,6.70128,0,0,0-.39808-2.2627l5.50654-2.9403A6.74819,6.74819,0,0,0,49,17.46179v11.149c-.03308-.04578-.06329-.09326-.0968-.13873l-.17481-.02649-.02649.1748c.10321.14008.19892.28461.2981.42713v9.56774H39.37921A6.7643,6.7643,0,0,0,33.69238,32.92841ZM55.43011,14.797l5.50654,2.9403A6.70128,6.70128,0,0,0,60.53857,20a6.77629,6.77629,0,0,0,.16785,1.48035c-.12323.0415-.24737.07818-.37012.12225l-.07537.15991.15991.07538c.11541-.04144.23211-.07587.348-.115a6.76712,6.76712,0,0,0,5.53882,4.96393v6.24158a6.7643,6.7643,0,0,0-5.68683,5.68682H51V28.96436l.05737-.00995q.28611-.40614.59412-.79895L51.63031,27.98l-.17548.02118h-.00006c-.15716.20038-.30609.406-.45477.61157V17.46179A6.74737,6.74737,0,0,0,55.43011,14.797ZM66.30762,46.30579v6.2351a6.74907,6.74907,0,0,0-3.73871,1.85761c-.05689-.04706-.11115-.09711-.16858-.1435l-.17578.01862.01861.17578c.05384.04352.10468.09046.158.13452-.10827.11426-.215.23-.31518.35157l-5.51856-3.31665A6.841,6.841,0,0,0,56.769,50a6.77112,6.77112,0,0,0-.08545-1.03711c.29389-.10577.58527-.21661.87244-.33569l.06763-.16333-.16339-.06763c-.27271.1131-.54969.2179-.82843.31879a6.74812,6.74812,0,0,0-.37958-1.29645l5.8338-3.50775A6.75472,6.75472,0,0,0,66.30762,46.30579ZM55.22192,65.32013a6.78033,6.78033,0,0,0-2.78765-2.013c.02746-.15216.05938-.30341.08337-.45624l-.10419-.14282-.14282.10412c-.02167.13825-.05084.27509-.07544.41285A6.68427,6.68427,0,0,0,51,62.92468V60.23047h1.49512c-.00458.20117-.00623.40259-.017.60321l.11816.13153.13147-.1181c.011-.20514.01276-.411.01734-.61664h7.87109a6.73217,6.73217,0,0,0,.43939,1.582ZM47.792,63.22943l.00586-.00842q-.08743-.48981-.1499-.984l-.13965-.10834L47.4,62.26837q.06318.50034.15174.99652l.04522.0315a6.7798,6.7798,0,0,0-2.81884,2.02374l-5.83344-3.50775a6.73609,6.73609,0,0,0,.43915-1.58191h7.86529l.00031.028.12793.122.122-.12793-.00025-.02209H49v2.69421A6.68472,6.68472,0,0,0,47.792,63.22943Zm-8.40826-22.6142H49v2.69471a6.728,6.728,0,0,0-3.23657,1.42242q-.36823-.31128-.7489-.60388l-.17524.02331.02338.17524c.2406.184.47614.37573.7088.57165a6.79826,6.79826,0,0,0-.79333.80573l-5.8335-3.50775A6.73263,6.73263,0,0,0,39.38373,40.61523Zm13.11694,0c-.00085.04261-.00061.08515-.00177.12775l.12152.12842.12836-.12158c.00122-.04486.00091-.08972.00183-.13459h7.8656c.02411.1623.06427.31891.09973.47736-.28113.09406-.561.192-.83771.29858l-.07171.16156.16156.07172c.2641-.10174.53131-.1947.79944-.28491a6.73127,6.73127,0,0,0,.28808.85724l-5.83368,3.50769a6.77846,6.77846,0,0,0-2.77838-2.00922c.05615-.31146.10614-.62366.147-.93616l-.10779-.14013-.14014.10772c-.0387.29584-.08649.59125-.1391.88617A6.69567,6.69567,0,0,0,51,43.30994V40.61523Zm8.11566,17.61524H59.61279c-.05957-.02429-.12036-.04517-.17968-.07007l-.16364.06689.00128.00318H51v-1.539a6.71763,6.71763,0,0,0,3.22919-1.42981q.37161.31467.75622.60986l.17523-.02331-.02337-.17524c-.241-.18432-.477-.37628-.71-.57257a6.81418,6.81418,0,0,0,1.3659-1.61346l5.26239,3.16266A6.73062,6.73062,0,0,0,60.61633,58.23047ZM48.4978,53.24652l-.15918.07684q-.16671.47792-.30761.96027l.03625.06616a4.75174,4.75174,0,0,1-.83368-.469c.10584-.11005.21454-.21649.31806-.32941l-.00763-.17663-.17658.00763c-.10687.11651-.21893.2265-.32825.34a4.83,4.83,0,0,1-1.4931-2.0022,5.00224,5.00224,0,0,1-.257-1.09607l.08661.05274q.48166-.1172.97241-.21033l.09955-.14606-.14612-.09954q-.497.0942-.98492.213l-.03925.06445A4.71924,4.71924,0,0,1,45.231,50c.00006-.15424.017-.30365.03119-.45386.14331.03528.28485.07508.42938.10724l.14923-.09479-.09485-.14923c-.155-.03448-.30682-.07678-.46033-.11493a4.74094,4.74094,0,0,1,.62134-1.7445,4.8503,4.8503,0,0,1,1.18134-1.32434l-.002.09191q.34314.35853.67.73713l.17633.013.01294-.17633q-.33089-.38343-.67865-.74665l-.063-.0014a4.739,4.739,0,0,1,.81933-.477c.04334.14972.08209.30017.12915.44934l.1568.0816.08161-.15686c-.04975-.15759-.09095-.31646-.13648-.47473A4.75423,4.75423,0,0,1,51.826,45.593l-.09693.0531q-.13915.47616-.30377.94812l.07685.15918.15924-.07685q.16671-.4779.30761-.96032l-.04052-.074a4.73417,4.73417,0,0,1,.83545.47949c-.105.10926-.21283.21485-.31556.32685l.00769.17663.17658-.00769c.10846-.11822.22217-.22992.33313-.345a4.85022,4.85022,0,0,1,1.12732,1.27747,4.7379,4.7379,0,0,1,.63379,1.83636l-.1034-.06293q-.48165.1172-.97241.21027l-.09955.14606.14606.09955q.497-.09421.985-.213l.051-.08368A4.80138,4.80138,0,0,1,54.769,50c0,.15283-.02758.3006-.042.45111-.14-.03442-.27826-.0733-.41949-.10474l-.14917.09485.09484.14917c.15162.03376.30018.07526.45038.11249a5.00419,5.00419,0,0,1-.24969,1.01727,4.83056,4.83056,0,0,1-1.54193,2.042l.00177-.07965q-.34323-.35862-.67005-.73719l-.17627-.01294-.013.17627q.331.38343.67865.74671l.06287.0014a4.75329,4.75329,0,0,1-.81958.47534c-.04321-.14923-.08179-.29907-.12866-.44769l-.15686-.0816-.08161.15686c.04895.155.08942.3114.13428.467a4.60959,4.60959,0,0,1-3.55518-.02771l.08259-.04523q.13915-.47607.30377-.94806Zm-4.29095.24042a6.793,6.793,0,0,0,3.35107,2.80823c-.05688.31463-.10718.63-.14844.94567l.10779.14014.14014-.10773c.03845-.29431.08612-.58807.13837-.88153A6.6979,6.6979,0,0,0,49,56.69147v1.539H39.38367a6.73342,6.73342,0,0,0-.439-1.58081Zm-8.67377,9.571c-.204-.22595-.40436-.45544-.59778-.69079l-.176-.01721-.01721.1759h.00006c.18811.22894.3833.45172.58136.67181a4.56939,4.56939,0,0,1-3.92792.6012c.014-.04486.02527-.09082.03961-.13556l-.08087-.15717-.15717.08088h-.00006c-.01452.04541-.026.09216-.04022.13775a4.69633,4.69633,0,0,1-3.23053-4.45935c.10315.02759.20557.05988.309.0857l.15155-.09095-.09094-.15155c-.11743-.02936-.23389-.06573-.351-.09735a4.725,4.725,0,0,1,2.916-4.18243c.05091.20227.09918.40558.15625.60534l.15454.08588.08588-.15454c-.05762-.20154-.10645-.40668-.15765-.6109A4.75926,4.75926,0,0,1,36.78546,61.681,4.8472,4.8472,0,0,1,35.53308,63.058ZM54.769,89.23047a4.769,4.769,0,1,1-1.39685-3.37177A4.75046,4.75046,0,0,1,54.769,89.23047ZM53.37158,72.98712a4.82824,4.82824,0,0,1-.41748.34448c-.13269-.13751-.26806-.273-.39612-.41388l-.17657-.00842-.00842.17658c.12536.13794.25811.27044.38781.40521a4.7073,4.7073,0,0,1-5.54052-.01563l-.00232-.13311-.15577.00268a4.85192,4.85192,0,0,1-.43377-.35791A4.75053,4.75053,0,0,1,45.231,69.61523c.00006-.15417.017-.30358.03119-.45379.14349.03534.28527.07513.43005.10736l.14917-.09485-.09485-.14917c-.15515-.03455-.30719-.0769-.46088-.11511a4.73968,4.73968,0,0,1,.62128-1.744,4.812,4.812,0,0,1,2.1156-1.884c.08795.30487.182.608.28443.90844l.15869.078.07794-.1587q-.15711-.46041-.29065-.92828a4.75778,4.75778,0,0,1,6.47388,3.81989l-.10266-.0625q-.48166.11718-.97248.21032l-.09955.14606.14612.09955q.497-.09421.985-.213l.05029-.08265a4.80182,4.80182,0,0,1,.03552.51654A4.75053,4.75053,0,0,1,53.37158,72.98712Zm18.684-13.97119c-.304.082-.60882.15772-.91467.22449l-.09546.1488.1488.09546c.29395-.06421.5868-.1377.87909-.21582a4.754,4.754,0,0,1-7.3988,3.92749c.06128-.06812.12579-.13312.1861-.20209l-.01178-.17639-.1764.01178c-.06756.07721-.13971.15021-.20843.22632a4.84321,4.84321,0,0,1-1.24927-1.37543,4.74187,4.74187,0,0,1-.663-2.25848c.21136.04877.42224.09985.63519.14172l.14679-.09851-.09857-.14679c-.232-.04559-.46185-.1004-.692-.15436a4.75828,4.75828,0,0,1,9.51239-.14819Zm.02161-19.4007a4.75426,4.75426,0,0,1-.13471,1.08307c-.05938-.01544-.11822-.03448-.17767-.04931l-.15155.091.09094.15155c.05493.01373.10926.03131.16413.04553a4.59841,4.59841,0,0,1-3.08393,3.19068l.0423-.0813q-.15263-.483-.329-.955l-.16083-.07336-.07336.16082q.174.46591.32483.94281l.08062.04194a4.57075,4.57075,0,0,1-3.9942-.58265c.0611-.06781.12537-.13269.18549-.20141l-.01178-.17639-.17639.01171c-.06739.077-.13929.14972-.20783.22565a4.84594,4.84594,0,0,1-1.24945-1.37573,4.7524,4.7524,0,0,1,.65973-5.7467c.0567.05749.11639.11206.17236.17028l.17676.00336.00342-.1767c-.05585-.058-.11536-.11242-.17188-.1698a4.76059,4.76059,0,0,1,8.022,3.47ZM70.67957,16.62842a4.73164,4.73164,0,0,1-1.895,7.8836l.04205-.08087q-.15263-.483-.329-.955l-.16083-.07331-.07336.16083q.17414.46592.32483.94281l.08014.04163A4.74593,4.74593,0,0,1,62.53857,20a4.65721,4.65721,0,0,1,.55951-2.23431l.00251-.00458.00164-.00318a4.79145,4.79145,0,0,1,.76905-1.05841c.0578.0586.11859.1142.17566.17353l.17675.00341.00342-.17675c-.05609-.05829-.1159-.113-.17273-.17066a4.74664,4.74664,0,0,1,6.62519.09937ZM46.62836,7.3974A4.769,4.769,0,0,1,54.769,10.769a4.66,4.66,0,0,1-.55963,2.235l-.00213.004-.00184.00347a4.76276,4.76276,0,0,1-8.41088,0l-.00171-.00323-.00226-.00421a4.66,4.66,0,0,1-.55963-2.235A4.74993,4.74993,0,0,1,46.62836,7.3974ZM28.1333,21.3269c.06726-.01739.13348-.03845.20087-.05511l.09131-.15137-.15137-.09131c-.07214.01783-.143.04035-.215.059a4.76166,4.76166,0,0,1,8.83863-3.3302l.00164.00306.00251.0047A4.65721,4.65721,0,0,1,37.46143,20a4.77167,4.77167,0,0,1-.11811,1.0296l-.076-.11908q-.49365-.109-.9898-.19208l-.14392.1026.1026.14393q.48962.082.97717.18969l.11365-.07251a4.74307,4.74307,0,0,1-9.19373.24475Zm1.1872,14.91675a4.78923,4.78923,0,0,1,1.54034-1.03039c.05084.20221.09918.40539.15619.605l.15454.08587.08588-.15454c-.05756-.20147-.10639-.40649-.1576-.61059a4.72461,4.72461,0,0,1,6.25757,5.41876c-.18139-.041-.36194-.08557-.54449-.12146l-.14673.09851.09851.14679c.18158.03571.36121.08.54169.12085a4.74891,4.74891,0,0,1-.52094,1.26276,4.84909,4.84909,0,0,1-1.2525,1.37732c-.20416-.22608-.40454-.45569-.59808-.69117l-.176-.01715-.01715.17591c.18823.229.38342.452.5816.67218a4.72206,4.72206,0,0,1-7.19128-2.64417c.24194-.06274.48389-.12536.72693-.17847l.09546-.14874-.14881-.09546c-.25012.05457-.499.1189-.74786.18354a4.68572,4.68572,0,0,1,1.2627-4.45539Z"></path></g></svg>